G04*
G04 #@! TF.GenerationSoftware,Altium Limited,Altium Designer,24.5.2 (23)*
G04*
G04 Layer_Color=128*
%FSLAX25Y25*%
%MOIN*%
G70*
G04*
G04 #@! TF.SameCoordinates,87A27F8E-189C-4B0C-BDB5-44B7C51DF011*
G04*
G04*
G04 #@! TF.FilePolarity,Positive*
G04*
G01*
G75*
%ADD16R,0.04016X0.03701*%
%ADD17R,0.03701X0.04016*%
%ADD21R,0.04724X0.05118*%
%ADD24R,0.05118X0.04724*%
%ADD26C,0.03937*%
%ADD123R,0.08661X0.04724*%
%ADD124R,0.08661X0.13780*%
G04:AMPARAMS|DCode=125|XSize=59.06mil|YSize=17.72mil|CornerRadius=1.97mil|HoleSize=0mil|Usage=FLASHONLY|Rotation=180.000|XOffset=0mil|YOffset=0mil|HoleType=Round|Shape=RoundedRectangle|*
%AMROUNDEDRECTD125*
21,1,0.05906,0.01378,0,0,180.0*
21,1,0.05512,0.01772,0,0,180.0*
1,1,0.00394,-0.02756,0.00689*
1,1,0.00394,0.02756,0.00689*
1,1,0.00394,0.02756,-0.00689*
1,1,0.00394,-0.02756,-0.00689*
%
%ADD125ROUNDEDRECTD125*%
%ADD126R,0.05512X0.03937*%
%ADD127R,0.04724X0.08661*%
%ADD128R,0.13780X0.08661*%
D16*
X151575Y149764D02*
D03*
Y143543D02*
D03*
X304038Y126787D02*
D03*
Y120567D02*
D03*
X296578Y126787D02*
D03*
Y120567D02*
D03*
X303829Y89018D02*
D03*
Y82798D02*
D03*
X296578Y89018D02*
D03*
Y82798D02*
D03*
D17*
X88425Y167323D02*
D03*
X94646D02*
D03*
X88425Y161417D02*
D03*
X94646D02*
D03*
X258701Y67167D02*
D03*
X264921D02*
D03*
X258701Y51444D02*
D03*
X264921D02*
D03*
D21*
X492323Y216535D02*
D03*
X499803D02*
D03*
X467321Y80760D02*
D03*
X459841D02*
D03*
X418563Y70644D02*
D03*
X411083D02*
D03*
X418563Y77618D02*
D03*
X411083D02*
D03*
X418563Y84941D02*
D03*
X411083D02*
D03*
X418563Y92100D02*
D03*
X411083D02*
D03*
X261280Y151277D02*
D03*
X253799D02*
D03*
X261280Y113189D02*
D03*
X253799D02*
D03*
D24*
X142717Y123819D02*
D03*
Y116339D02*
D03*
X113189Y124803D02*
D03*
Y117323D02*
D03*
X136811Y142913D02*
D03*
Y150394D02*
D03*
X144685D02*
D03*
Y142913D02*
D03*
X113189Y93701D02*
D03*
Y101181D02*
D03*
X121063Y150295D02*
D03*
Y142815D02*
D03*
X128937Y150295D02*
D03*
Y142815D02*
D03*
X142717Y93701D02*
D03*
Y101181D02*
D03*
X136811Y66043D02*
D03*
Y73524D02*
D03*
X128937Y66043D02*
D03*
Y73524D02*
D03*
X216535Y180905D02*
D03*
Y173425D02*
D03*
X296578Y141124D02*
D03*
Y148604D02*
D03*
Y105834D02*
D03*
Y113315D02*
D03*
X113189Y173031D02*
D03*
Y165551D02*
D03*
X121063Y173031D02*
D03*
Y165551D02*
D03*
X170276Y173031D02*
D03*
Y165551D02*
D03*
D26*
X416339Y328740D02*
D03*
X116142Y15748D02*
D03*
X15748Y261811D02*
D03*
X387795Y153543D02*
D03*
X326772Y196850D02*
D03*
X261811Y175197D02*
D03*
D123*
X500394Y244291D02*
D03*
Y235236D02*
D03*
Y226181D02*
D03*
X470866Y90354D02*
D03*
Y99410D02*
D03*
Y108465D02*
D03*
X227953Y185827D02*
D03*
Y176772D02*
D03*
Y167717D02*
D03*
D124*
X475984Y235236D02*
D03*
X446457Y99410D02*
D03*
X252362Y176772D02*
D03*
D125*
X261221Y143405D02*
D03*
Y140847D02*
D03*
Y138287D02*
D03*
Y135728D02*
D03*
Y133169D02*
D03*
Y130610D02*
D03*
Y128051D02*
D03*
Y125492D02*
D03*
Y122933D02*
D03*
Y120374D02*
D03*
X284055D02*
D03*
Y122933D02*
D03*
Y125492D02*
D03*
Y128051D02*
D03*
Y130610D02*
D03*
Y133169D02*
D03*
Y135728D02*
D03*
Y138287D02*
D03*
Y140847D02*
D03*
Y143405D02*
D03*
X261221Y106004D02*
D03*
Y103445D02*
D03*
Y100886D02*
D03*
Y98327D02*
D03*
Y95768D02*
D03*
Y93209D02*
D03*
Y90650D02*
D03*
Y88091D02*
D03*
Y85532D02*
D03*
Y82973D02*
D03*
X284055D02*
D03*
Y85532D02*
D03*
Y88091D02*
D03*
Y90650D02*
D03*
Y93209D02*
D03*
Y95768D02*
D03*
Y98327D02*
D03*
Y100886D02*
D03*
Y103445D02*
D03*
Y106004D02*
D03*
D126*
X276772Y50046D02*
D03*
Y57526D02*
D03*
X285433Y53786D02*
D03*
X276772Y67126D02*
D03*
Y74606D02*
D03*
X285433Y70866D02*
D03*
D127*
X132677Y191339D02*
D03*
X141732D02*
D03*
X150787D02*
D03*
D128*
X141732Y166929D02*
D03*
M02*
