G04*
G04 #@! TF.GenerationSoftware,Altium Limited,Altium Designer,24.5.2 (23)*
G04*
G04 Layer_Color=255*
%FSLAX25Y25*%
%MOIN*%
G70*
G04*
G04 #@! TF.SameCoordinates,87A27F8E-189C-4B0C-BDB5-44B7C51DF011*
G04*
G04*
G04 #@! TF.FilePolarity,Positive*
G04*
G01*
G75*
%ADD15R,0.01181X0.03425*%
%ADD16R,0.04016X0.03701*%
%ADD17R,0.03701X0.04016*%
G04:AMPARAMS|DCode=18|XSize=7.87mil|YSize=33.07mil|CornerRadius=0.98mil|HoleSize=0mil|Usage=FLASHONLY|Rotation=0.000|XOffset=0mil|YOffset=0mil|HoleType=Round|Shape=RoundedRectangle|*
%AMROUNDEDRECTD18*
21,1,0.00787,0.03110,0,0,0.0*
21,1,0.00591,0.03307,0,0,0.0*
1,1,0.00197,0.00295,-0.01555*
1,1,0.00197,-0.00295,-0.01555*
1,1,0.00197,-0.00295,0.01555*
1,1,0.00197,0.00295,0.01555*
%
%ADD18ROUNDEDRECTD18*%
G04:AMPARAMS|DCode=19|XSize=33.07mil|YSize=7.87mil|CornerRadius=0.98mil|HoleSize=0mil|Usage=FLASHONLY|Rotation=0.000|XOffset=0mil|YOffset=0mil|HoleType=Round|Shape=RoundedRectangle|*
%AMROUNDEDRECTD19*
21,1,0.03307,0.00591,0,0,0.0*
21,1,0.03110,0.00787,0,0,0.0*
1,1,0.00197,0.01555,-0.00295*
1,1,0.00197,-0.01555,-0.00295*
1,1,0.00197,-0.01555,0.00295*
1,1,0.00197,0.01555,0.00295*
%
%ADD19ROUNDEDRECTD19*%
%ADD21R,0.04724X0.05118*%
%ADD22R,0.06496X0.02559*%
%ADD23R,0.09449X0.09449*%
%ADD24R,0.05118X0.04724*%
%ADD25R,0.01575X0.01575*%
%ADD26C,0.03937*%
%ADD27R,0.08504X0.04213*%
%ADD28R,0.03819X0.03937*%
%ADD29R,0.01378X0.01575*%
%ADD30R,0.02953X0.04449*%
%ADD31R,0.02284X0.08268*%
%ADD32R,0.02559X0.04449*%
%ADD33R,0.03150X0.05906*%
%ADD34R,0.07087X0.05512*%
%ADD35R,0.05512X0.07480*%
%ADD36R,0.05512X0.08268*%
%ADD37R,0.05906X0.05906*%
G04:AMPARAMS|DCode=38|XSize=98.43mil|YSize=31.5mil|CornerRadius=15.75mil|HoleSize=0mil|Usage=FLASHONLY|Rotation=45.000|XOffset=0mil|YOffset=0mil|HoleType=Round|Shape=RoundedRectangle|*
%AMROUNDEDRECTD38*
21,1,0.09843,0.00000,0,0,45.0*
21,1,0.06693,0.03150,0,0,45.0*
1,1,0.03150,0.02366,0.02366*
1,1,0.03150,-0.02366,-0.02366*
1,1,0.03150,-0.02366,-0.02366*
1,1,0.03150,0.02366,0.02366*
%
%ADD38ROUNDEDRECTD38*%
G04:AMPARAMS|DCode=39|XSize=98.43mil|YSize=31.5mil|CornerRadius=15.75mil|HoleSize=0mil|Usage=FLASHONLY|Rotation=135.000|XOffset=0mil|YOffset=0mil|HoleType=Round|Shape=RoundedRectangle|*
%AMROUNDEDRECTD39*
21,1,0.09843,0.00000,0,0,135.0*
21,1,0.06693,0.03150,0,0,135.0*
1,1,0.03150,-0.02366,0.02366*
1,1,0.03150,0.02366,-0.02366*
1,1,0.03150,0.02366,-0.02366*
1,1,0.03150,-0.02366,0.02366*
%
%ADD39ROUNDEDRECTD39*%
%ADD40P,0.06125X4X90.0*%
G04:AMPARAMS|DCode=41|XSize=51.18mil|YSize=47.24mil|CornerRadius=0mil|HoleSize=0mil|Usage=FLASHONLY|Rotation=45.000|XOffset=0mil|YOffset=0mil|HoleType=Round|Shape=Rectangle|*
%AMROTATEDRECTD41*
4,1,4,-0.00139,-0.03480,-0.03480,-0.00139,0.00139,0.03480,0.03480,0.00139,-0.00139,-0.03480,0.0*
%
%ADD41ROTATEDRECTD41*%

%ADD42R,0.09843X0.12992*%
%ADD43R,0.08661X0.04134*%
%ADD44R,0.04331X0.03937*%
%ADD45R,0.21260X0.11417*%
G04:AMPARAMS|DCode=46|XSize=118.11mil|YSize=78.74mil|CornerRadius=0mil|HoleSize=0mil|Usage=FLASHONLY|Rotation=135.000|XOffset=0mil|YOffset=0mil|HoleType=Round|Shape=Rectangle|*
%AMROTATEDRECTD46*
4,1,4,0.06960,-0.01392,0.01392,-0.06960,-0.06960,0.01392,-0.01392,0.06960,0.06960,-0.01392,0.0*
%
%ADD46ROTATEDRECTD46*%

G04:AMPARAMS|DCode=47|XSize=37.01mil|YSize=40.16mil|CornerRadius=0mil|HoleSize=0mil|Usage=FLASHONLY|Rotation=225.000|XOffset=0mil|YOffset=0mil|HoleType=Round|Shape=Rectangle|*
%AMROTATEDRECTD47*
4,1,4,-0.00111,0.02728,0.02728,-0.00111,0.00111,-0.02728,-0.02728,0.00111,-0.00111,0.02728,0.0*
%
%ADD47ROTATEDRECTD47*%

G04:AMPARAMS|DCode=48|XSize=21.65mil|YSize=61.02mil|CornerRadius=0mil|HoleSize=0mil|Usage=FLASHONLY|Rotation=45.000|XOffset=0mil|YOffset=0mil|HoleType=Round|Shape=Rectangle|*
%AMROTATEDRECTD48*
4,1,4,0.01392,-0.02923,-0.02923,0.01392,-0.01392,0.02923,0.02923,-0.01392,0.01392,-0.02923,0.0*
%
%ADD48ROTATEDRECTD48*%

%ADD49R,0.42300X0.32700*%
%ADD50R,0.04100X0.15900*%
%ADD104R,0.12205X0.12205*%
%AMCUSTOMSHAPE105*
4,1,8,-0.15098,0.21260,-0.09311,0.21260,-0.09311,0.17126,0.15098,0.17126,0.15098,-0.17126,-0.09311,-0.17126,-0.09311,-0.21260,-0.15098,-0.21260,-0.15098,0.21260,0.0*%
%ADD105CUSTOMSHAPE105*%

%ADD111C,0.05512*%
%ADD112C,0.02244*%
%ADD113C,0.05906*%
%ADD114R,0.05906X0.05906*%
%ADD115R,0.06496X0.06496*%
%ADD116C,0.06496*%
%ADD117R,0.04803X0.04803*%
%ADD118C,0.04803*%
%ADD119R,0.04803X0.04803*%
D15*
X83661Y184961D02*
D03*
X77756D02*
D03*
X75787D02*
D03*
X73819D02*
D03*
X71850D02*
D03*
X69882D02*
D03*
X67913D02*
D03*
X62008D02*
D03*
Y178150D02*
D03*
X67913D02*
D03*
X69882D02*
D03*
X71850D02*
D03*
X73819D02*
D03*
X75787D02*
D03*
X77756D02*
D03*
X83661D02*
D03*
X222466Y208474D02*
D03*
X228372D02*
D03*
X230340D02*
D03*
X232309D02*
D03*
X234277D02*
D03*
X236246D02*
D03*
X238214D02*
D03*
X244120D02*
D03*
Y201663D02*
D03*
X238214D02*
D03*
X236246D02*
D03*
X234277D02*
D03*
X232309D02*
D03*
X230340D02*
D03*
X228372D02*
D03*
X222466D02*
D03*
D16*
X96457Y177008D02*
D03*
Y183228D02*
D03*
X131890Y149665D02*
D03*
Y143445D02*
D03*
X137795Y149665D02*
D03*
Y143445D02*
D03*
X89567Y130079D02*
D03*
Y123858D02*
D03*
X146653Y36575D02*
D03*
Y30354D02*
D03*
X475862Y291652D02*
D03*
Y297873D02*
D03*
X223425Y232283D02*
D03*
Y226063D02*
D03*
X230315Y232441D02*
D03*
Y226220D02*
D03*
X237205Y232441D02*
D03*
Y226220D02*
D03*
X258411Y207706D02*
D03*
Y201485D02*
D03*
X366754Y128192D02*
D03*
Y121972D02*
D03*
X353369Y128192D02*
D03*
Y121972D02*
D03*
X340430Y128192D02*
D03*
Y121972D02*
D03*
X320098Y128192D02*
D03*
Y121972D02*
D03*
X327010Y128192D02*
D03*
Y121972D02*
D03*
X434831Y138735D02*
D03*
Y132515D02*
D03*
X448461Y138735D02*
D03*
Y132515D02*
D03*
X468851Y138735D02*
D03*
Y132515D02*
D03*
X400562Y138735D02*
D03*
Y132515D02*
D03*
X421146Y138735D02*
D03*
Y132515D02*
D03*
X414220Y138735D02*
D03*
Y132515D02*
D03*
X407390Y138735D02*
D03*
Y132515D02*
D03*
X462036Y138735D02*
D03*
Y132515D02*
D03*
X455276Y138735D02*
D03*
Y132515D02*
D03*
X441591Y138735D02*
D03*
Y132515D02*
D03*
X427905Y138735D02*
D03*
Y132515D02*
D03*
X230315Y36575D02*
D03*
Y30354D02*
D03*
X222441Y36575D02*
D03*
Y30354D02*
D03*
X262795Y263937D02*
D03*
Y257716D02*
D03*
X269685Y257716D02*
D03*
Y263937D02*
D03*
X255906Y257716D02*
D03*
Y263937D02*
D03*
X382663Y128192D02*
D03*
Y121972D02*
D03*
D17*
X61181Y166339D02*
D03*
X54961D02*
D03*
X190118Y59055D02*
D03*
X183898D02*
D03*
X129764Y238189D02*
D03*
X135984D02*
D03*
X114842D02*
D03*
X121063D02*
D03*
X236063Y264764D02*
D03*
X242284D02*
D03*
D18*
X117717Y92677D02*
D03*
X119291D02*
D03*
X120866D02*
D03*
X122441D02*
D03*
X124016D02*
D03*
X125591D02*
D03*
X127165D02*
D03*
X128741D02*
D03*
X130315D02*
D03*
X131890D02*
D03*
X133465D02*
D03*
X135039D02*
D03*
X136614D02*
D03*
X138189D02*
D03*
Y119724D02*
D03*
X136614D02*
D03*
X135039D02*
D03*
X133465D02*
D03*
X131890D02*
D03*
X130315D02*
D03*
X128740D02*
D03*
X127165D02*
D03*
X125591D02*
D03*
X124016D02*
D03*
X122441D02*
D03*
X120866D02*
D03*
X119291D02*
D03*
X117717D02*
D03*
D19*
X114429Y116437D02*
D03*
Y114862D02*
D03*
Y113287D02*
D03*
Y111713D02*
D03*
Y110138D02*
D03*
Y108563D02*
D03*
Y106988D02*
D03*
Y105413D02*
D03*
Y103839D02*
D03*
Y102264D02*
D03*
Y100689D02*
D03*
Y99114D02*
D03*
Y97539D02*
D03*
Y95965D02*
D03*
X141476D02*
D03*
Y97539D02*
D03*
Y99114D02*
D03*
Y100689D02*
D03*
Y102264D02*
D03*
Y103839D02*
D03*
Y105413D02*
D03*
Y106988D02*
D03*
Y108563D02*
D03*
Y110138D02*
D03*
Y111713D02*
D03*
Y113287D02*
D03*
Y114862D02*
D03*
Y116437D02*
D03*
D21*
X122835Y155512D02*
D03*
X115354D02*
D03*
X184252Y52165D02*
D03*
X191732D02*
D03*
X128937Y290354D02*
D03*
X121457D02*
D03*
D22*
X102657Y140138D02*
D03*
Y145138D02*
D03*
Y150138D02*
D03*
Y155138D02*
D03*
X80413Y140138D02*
D03*
Y145138D02*
D03*
Y150138D02*
D03*
Y155138D02*
D03*
D23*
X102362Y69882D02*
D03*
X120079D02*
D03*
D24*
X102362Y58661D02*
D03*
Y51181D02*
D03*
X120079Y58858D02*
D03*
Y51378D02*
D03*
X137795Y298031D02*
D03*
Y290551D02*
D03*
X147638D02*
D03*
Y298031D02*
D03*
X74761Y220669D02*
D03*
Y228150D02*
D03*
X82677Y220669D02*
D03*
Y228150D02*
D03*
X482941Y291658D02*
D03*
Y299138D02*
D03*
X313369Y121342D02*
D03*
Y128822D02*
D03*
X333671Y121342D02*
D03*
Y128822D02*
D03*
X346858Y121342D02*
D03*
Y128822D02*
D03*
X359933Y121342D02*
D03*
Y128822D02*
D03*
X338583Y320669D02*
D03*
Y313189D02*
D03*
X330709Y320669D02*
D03*
Y313189D02*
D03*
X322835Y320669D02*
D03*
Y313189D02*
D03*
X314961Y320669D02*
D03*
Y313189D02*
D03*
X307087Y320669D02*
D03*
Y313189D02*
D03*
X299213Y320669D02*
D03*
Y313189D02*
D03*
X338583Y301969D02*
D03*
Y294488D02*
D03*
X330709Y301969D02*
D03*
Y294488D02*
D03*
X322835Y301969D02*
D03*
Y294488D02*
D03*
X314961Y301969D02*
D03*
Y294488D02*
D03*
X307087Y301969D02*
D03*
Y294488D02*
D03*
X299213Y301969D02*
D03*
Y294488D02*
D03*
D25*
X459487Y325984D02*
D03*
Y323228D02*
D03*
X450338Y325984D02*
D03*
Y323228D02*
D03*
X459487Y294314D02*
D03*
Y291558D02*
D03*
X450338Y294314D02*
D03*
Y291558D02*
D03*
X462557Y294314D02*
D03*
Y291558D02*
D03*
D26*
X416339Y328740D02*
D03*
X15748Y261811D02*
D03*
X116142Y15748D02*
D03*
X47835Y18701D02*
D03*
X57835D02*
D03*
X67835D02*
D03*
X77762D02*
D03*
X87835D02*
D03*
X97835D02*
D03*
D27*
X131890Y277559D02*
D03*
Y270866D02*
D03*
Y264173D02*
D03*
Y257480D02*
D03*
Y250787D02*
D03*
D28*
X468774Y291869D02*
D03*
Y297656D02*
D03*
D29*
X453567Y325787D02*
D03*
X456126D02*
D03*
X453568Y294128D02*
D03*
X456127D02*
D03*
D30*
X345512Y109222D02*
D03*
X335512D02*
D03*
X325512D02*
D03*
X350512D02*
D03*
X340512D02*
D03*
X330512D02*
D03*
D31*
X370079Y103376D02*
D03*
Y56132D02*
D03*
X318898D02*
D03*
Y103376D02*
D03*
D32*
X354252Y109222D02*
D03*
D33*
X412854Y69193D02*
D03*
X421516D02*
D03*
X430177Y71555D02*
D03*
X434508Y69980D02*
D03*
X404193D02*
D03*
X408524D02*
D03*
X417185D02*
D03*
X425846D02*
D03*
D34*
X429823Y110531D02*
D03*
X407382D02*
D03*
D35*
X452854Y54823D02*
D03*
X401083Y58760D02*
D03*
D36*
X157480Y6693D02*
D03*
X175197D02*
D03*
Y42520D02*
D03*
X157480D02*
D03*
X201772Y6693D02*
D03*
X184055D02*
D03*
Y42520D02*
D03*
X201772D02*
D03*
X297244Y6693D02*
D03*
X314961D02*
D03*
Y42520D02*
D03*
X297244D02*
D03*
X271595Y6693D02*
D03*
X289311D02*
D03*
Y42520D02*
D03*
X271595D02*
D03*
X246063Y6693D02*
D03*
X263779D02*
D03*
Y42520D02*
D03*
X246063D02*
D03*
D37*
X146653Y21654D02*
D03*
Y7874D02*
D03*
X230315Y21654D02*
D03*
Y7874D02*
D03*
X222441Y21654D02*
D03*
Y7874D02*
D03*
X210630Y305197D02*
D03*
X164370Y303228D02*
D03*
X31496Y186417D02*
D03*
X43307D02*
D03*
X185039D02*
D03*
X196850D02*
D03*
X31496Y123425D02*
D03*
X43307D02*
D03*
X185039D02*
D03*
X196850D02*
D03*
D38*
X304935Y227451D02*
D03*
X308554Y223832D02*
D03*
X312173Y220213D02*
D03*
X315792Y216594D02*
D03*
X441067Y266704D02*
D03*
X437448Y270323D02*
D03*
X433829Y273942D02*
D03*
X331660Y200726D02*
D03*
X335279Y197107D02*
D03*
X422972Y284799D02*
D03*
X419353Y288418D02*
D03*
X392628Y315144D02*
D03*
X396247Y311525D02*
D03*
X399866Y307906D02*
D03*
X403485Y304287D02*
D03*
X407104Y300667D02*
D03*
X410723Y297048D02*
D03*
X414342Y293429D02*
D03*
X426591Y281180D02*
D03*
X430210Y277561D02*
D03*
X444686Y263085D02*
D03*
X448305Y259466D02*
D03*
X451924Y255847D02*
D03*
X455543Y252228D02*
D03*
X459162Y248609D02*
D03*
X462781Y244990D02*
D03*
X375089Y157297D02*
D03*
X371470Y160916D02*
D03*
X367851Y164535D02*
D03*
X364232Y168155D02*
D03*
X360613Y171774D02*
D03*
X356994Y175393D02*
D03*
X353375Y179012D02*
D03*
X349756Y182631D02*
D03*
X346137Y186250D02*
D03*
X342518Y189869D02*
D03*
X338898Y193488D02*
D03*
X326649Y205737D02*
D03*
X323030Y209356D02*
D03*
X319411Y212975D02*
D03*
D39*
X415038Y188059D02*
D03*
X418657Y191678D02*
D03*
X422276Y195297D02*
D03*
X425895Y198916D02*
D03*
X454847Y227869D02*
D03*
X353792Y285495D02*
D03*
X350173Y281876D02*
D03*
X346554Y278257D02*
D03*
X342935Y274638D02*
D03*
X339316Y271019D02*
D03*
X313983Y245686D02*
D03*
X310364Y242067D02*
D03*
X389704Y162726D02*
D03*
X393323Y166345D02*
D03*
X317602Y249305D02*
D03*
X321221Y252924D02*
D03*
X324840Y256543D02*
D03*
X328459Y260162D02*
D03*
X332078Y263781D02*
D03*
X335697Y267400D02*
D03*
X357411Y289114D02*
D03*
X361030Y292733D02*
D03*
X364650Y296352D02*
D03*
X368268Y299971D02*
D03*
X371888Y303590D02*
D03*
X375507Y307209D02*
D03*
X379126Y310829D02*
D03*
X458466Y231488D02*
D03*
X451228Y224250D02*
D03*
X447609Y220631D02*
D03*
X443990Y217012D02*
D03*
X440371Y213393D02*
D03*
X436752Y209774D02*
D03*
X433133Y206154D02*
D03*
X429514Y202536D02*
D03*
X411419Y184440D02*
D03*
X407800Y180821D02*
D03*
X404181Y177202D02*
D03*
X400562Y173583D02*
D03*
X396942Y169964D02*
D03*
D40*
X386085Y247356D02*
D03*
X390540Y242902D02*
D03*
X394994Y238448D02*
D03*
X386085D02*
D03*
X390540Y233993D02*
D03*
X377177Y238448D02*
D03*
X381631Y233993D02*
D03*
X377177Y229539D02*
D03*
X381631Y225085D02*
D03*
X328181Y230653D02*
D03*
X339316Y219517D02*
D03*
X372723Y186110D02*
D03*
X378291Y180543D02*
D03*
X383858Y174975D02*
D03*
X317045Y230653D02*
D03*
X322613Y225085D02*
D03*
X328181Y219517D02*
D03*
X333748Y213949D02*
D03*
X339316Y208382D02*
D03*
X344884Y202814D02*
D03*
X350173Y197524D02*
D03*
X356019Y191678D02*
D03*
X372723Y174975D02*
D03*
X378291Y169407D02*
D03*
X367155Y180543D02*
D03*
X361587Y186110D02*
D03*
X367155Y191678D02*
D03*
X361587Y197246D02*
D03*
X356019Y202814D02*
D03*
X350452Y208382D02*
D03*
X344884Y213949D02*
D03*
X333748Y225085D02*
D03*
X322613Y236221D02*
D03*
X372723Y233993D02*
D03*
X386085Y229539D02*
D03*
X381631Y242902D02*
D03*
D41*
X310347Y188668D02*
D03*
X315637Y183379D02*
D03*
X315269Y193590D02*
D03*
X320558Y188300D02*
D03*
X331385Y162710D02*
D03*
X326096Y167999D02*
D03*
D42*
X40748Y272638D02*
D03*
X67520D02*
D03*
D43*
X478642Y283366D02*
D03*
Y271752D02*
D03*
X471391Y331594D02*
D03*
Y319980D02*
D03*
D44*
X472146Y277559D02*
D03*
X464895Y325787D02*
D03*
D45*
X46260Y248031D02*
D03*
Y209055D02*
D03*
D46*
X387756Y186667D02*
D03*
X374393Y200030D02*
D03*
X361030Y213393D02*
D03*
X347668Y226755D02*
D03*
X334305Y240118D02*
D03*
X396664Y195576D02*
D03*
X383301Y208938D02*
D03*
X369939Y222301D02*
D03*
X356576Y235664D02*
D03*
X343214Y249026D02*
D03*
X406129Y205041D02*
D03*
X392767Y218404D02*
D03*
X365624Y244711D02*
D03*
X352679Y258492D02*
D03*
X415038Y213949D02*
D03*
X401675Y227312D02*
D03*
X374950Y254037D02*
D03*
X361587Y267400D02*
D03*
X424503Y223415D02*
D03*
X411140Y236777D02*
D03*
X397778Y250140D02*
D03*
X384415Y263503D02*
D03*
X371052Y276865D02*
D03*
X433411Y232323D02*
D03*
X420049Y245686D02*
D03*
X406686Y259048D02*
D03*
X393323Y272411D02*
D03*
X379961Y285774D02*
D03*
D47*
X292092Y178903D02*
D03*
X296491Y183302D02*
D03*
D48*
X313565Y145317D02*
D03*
X317101Y148852D02*
D03*
X320636Y152388D02*
D03*
X324172Y155923D02*
D03*
X293939Y164943D02*
D03*
X297474Y168479D02*
D03*
X301010Y172014D02*
D03*
X304545Y175550D02*
D03*
D49*
X249016Y318110D02*
D03*
D50*
X262402Y277365D02*
D03*
X255709D02*
D03*
X249016D02*
D03*
X242323D02*
D03*
X235630D02*
D03*
D104*
X127953Y106201D02*
D03*
D105*
X91201Y264173D02*
D03*
D111*
X63386Y190020D02*
D03*
X82284D02*
D03*
X63386Y173091D02*
D03*
X82284D02*
D03*
X223844Y213533D02*
D03*
X242742D02*
D03*
X223844Y196604D02*
D03*
X242742D02*
D03*
D112*
X87598Y181555D02*
D03*
X218529Y205069D02*
D03*
D113*
X210630Y295197D02*
D03*
X257953Y229331D02*
D03*
X182165Y211614D02*
D03*
X164370Y293228D02*
D03*
X94488Y228346D02*
D03*
Y208661D02*
D03*
X149606Y250000D02*
D03*
Y269685D02*
D03*
X31496Y136417D02*
D03*
Y146417D02*
D03*
Y156417D02*
D03*
Y166417D02*
D03*
Y176417D02*
D03*
X43307Y136417D02*
D03*
Y146417D02*
D03*
Y156417D02*
D03*
Y166417D02*
D03*
Y176417D02*
D03*
X185039Y136417D02*
D03*
Y146417D02*
D03*
Y156417D02*
D03*
Y166417D02*
D03*
Y176417D02*
D03*
X196850Y136417D02*
D03*
Y146417D02*
D03*
Y156417D02*
D03*
Y166417D02*
D03*
Y176417D02*
D03*
X31496Y73425D02*
D03*
Y83425D02*
D03*
Y93425D02*
D03*
Y103425D02*
D03*
Y113425D02*
D03*
X43307Y73425D02*
D03*
Y83425D02*
D03*
Y93425D02*
D03*
Y103425D02*
D03*
Y113425D02*
D03*
X185039Y73425D02*
D03*
Y83425D02*
D03*
Y93425D02*
D03*
Y103425D02*
D03*
Y113425D02*
D03*
X196850Y73425D02*
D03*
Y83425D02*
D03*
Y93425D02*
D03*
Y103425D02*
D03*
Y113425D02*
D03*
D114*
X247953Y229331D02*
D03*
X172165Y211614D02*
D03*
D115*
X227362Y157992D02*
D03*
D116*
X237362D02*
D03*
X227362Y147992D02*
D03*
X237362D02*
D03*
X227362Y137992D02*
D03*
X237362D02*
D03*
X227362Y127992D02*
D03*
X237362D02*
D03*
X227362Y117992D02*
D03*
X237362D02*
D03*
X227362Y107992D02*
D03*
X237362D02*
D03*
X227362Y97992D02*
D03*
X237362D02*
D03*
X227362Y87992D02*
D03*
X237362D02*
D03*
X227362Y77992D02*
D03*
X237362D02*
D03*
X227362Y67992D02*
D03*
X237362D02*
D03*
D117*
X53740Y314961D02*
D03*
X116732D02*
D03*
X53740Y326772D02*
D03*
X47835Y29528D02*
D03*
X116732Y326772D02*
D03*
D118*
X63740Y314961D02*
D03*
X73740D02*
D03*
X83740D02*
D03*
X93740D02*
D03*
X103740D02*
D03*
X126732D02*
D03*
X136732D02*
D03*
X146732D02*
D03*
X156732D02*
D03*
X166732D02*
D03*
X63740Y326772D02*
D03*
X73740D02*
D03*
X83740D02*
D03*
X93740D02*
D03*
X103740D02*
D03*
X57835Y29528D02*
D03*
X67835D02*
D03*
X77835D02*
D03*
X87835D02*
D03*
X97835D02*
D03*
X523622Y133110D02*
D03*
Y123110D02*
D03*
Y113110D02*
D03*
Y103110D02*
D03*
Y93110D02*
D03*
X511811Y239409D02*
D03*
Y229410D02*
D03*
Y219409D02*
D03*
Y209409D02*
D03*
Y199409D02*
D03*
X523622Y239409D02*
D03*
Y229410D02*
D03*
Y219409D02*
D03*
Y209409D02*
D03*
Y199409D02*
D03*
X126732Y326772D02*
D03*
X136732D02*
D03*
X146732D02*
D03*
X156732D02*
D03*
X166732D02*
D03*
X511811Y133110D02*
D03*
Y123110D02*
D03*
Y113110D02*
D03*
Y103110D02*
D03*
Y93110D02*
D03*
D119*
X523622Y143110D02*
D03*
X511811Y249410D02*
D03*
X523622D02*
D03*
X511811Y143110D02*
D03*
M02*
