G04*
G04 #@! TF.GenerationSoftware,Altium Limited,Altium Designer,24.5.2 (23)*
G04*
G04 Layer_Color=16711935*
%FSLAX25Y25*%
%MOIN*%
G70*
G04*
G04 #@! TF.SameCoordinates,87A27F8E-189C-4B0C-BDB5-44B7C51DF011*
G04*
G04*
G04 #@! TF.FilePolarity,Negative*
G04*
G01*
G75*
%ADD52R,0.04816X0.04501*%
%ADD53R,0.04501X0.04816*%
%ADD57R,0.05524X0.05918*%
%ADD60R,0.05918X0.05524*%
%ADD62C,0.07874*%
%ADD74R,0.06706X0.06706*%
%ADD85C,0.04737*%
%ADD89C,0.05709*%
%ADD90C,0.03044*%
%ADD91C,0.06706*%
%ADD92R,0.06706X0.06706*%
%ADD93R,0.07296X0.07296*%
%ADD94C,0.07296*%
%ADD95R,0.05603X0.05603*%
%ADD96C,0.05603*%
%ADD97R,0.05603X0.05603*%
%ADD98C,0.03950*%
%ADD99C,0.03556*%
%ADD131R,0.09461X0.05524*%
%ADD132R,0.09461X0.14580*%
G04:AMPARAMS|DCode=133|XSize=61.06mil|YSize=19.72mil|CornerRadius=2.97mil|HoleSize=0mil|Usage=FLASHONLY|Rotation=180.000|XOffset=0mil|YOffset=0mil|HoleType=Round|Shape=RoundedRectangle|*
%AMROUNDEDRECTD133*
21,1,0.06106,0.01378,0,0,180.0*
21,1,0.05512,0.01972,0,0,180.0*
1,1,0.00594,-0.02756,0.00689*
1,1,0.00594,0.02756,0.00689*
1,1,0.00594,0.02756,-0.00689*
1,1,0.00594,-0.02756,-0.00689*
%
%ADD133ROUNDEDRECTD133*%
%ADD134R,0.06312X0.04737*%
%ADD135R,0.05524X0.09461*%
%ADD136R,0.14580X0.09461*%
G36*
X57598Y180043D02*
X57520Y180047D01*
X57441Y180059D01*
X57362Y180071D01*
X57284Y180091D01*
X57209Y180114D01*
X57134Y180142D01*
X57059Y180169D01*
X56988Y180205D01*
X56917Y180244D01*
X56850Y180283D01*
X56787Y180331D01*
X56724Y180378D01*
X56661Y180429D01*
X56606Y180484D01*
X56551Y180539D01*
X56500Y180602D01*
X56453Y180665D01*
X56406Y180728D01*
X56366Y180799D01*
X56327Y180866D01*
X56291Y180937D01*
X56264Y181012D01*
X56236Y181087D01*
X56213Y181161D01*
X56193Y181240D01*
X56181Y181319D01*
X56169Y181398D01*
X56165Y181476D01*
X56161Y181555D01*
X56165Y181634D01*
X56169Y181713D01*
X56181Y181791D01*
X56193Y181870D01*
X56213Y181949D01*
X56236Y182024D01*
X56264Y182098D01*
X56291Y182173D01*
X56327Y182244D01*
X56366Y182311D01*
X56406Y182382D01*
X56453Y182445D01*
X56500Y182508D01*
X56551Y182571D01*
X56606Y182626D01*
X56661Y182681D01*
X56724Y182732D01*
X56787Y182780D01*
X56850Y182827D01*
X56917Y182866D01*
X56988Y182905D01*
X57059Y182941D01*
X57134Y182968D01*
X57209Y182996D01*
X57284Y183020D01*
X57362Y183039D01*
X57441Y183051D01*
X57520Y183063D01*
X57598Y183067D01*
X57677Y183071D01*
X58465D01*
X58543Y183067D01*
X58622Y183063D01*
X58701Y183051D01*
X58780Y183039D01*
X58858Y183020D01*
X58933Y182996D01*
X59008Y182968D01*
X59083Y182941D01*
X59153Y182905D01*
X59224Y182866D01*
X59291Y182827D01*
X59354Y182780D01*
X59417Y182732D01*
X59480Y182681D01*
X59535Y182626D01*
X59591Y182571D01*
X59642Y182508D01*
X59689Y182445D01*
X59736Y182382D01*
X59776Y182315D01*
X59815Y182244D01*
X59850Y182173D01*
X59878Y182098D01*
X59905Y182024D01*
X59929Y181949D01*
X59949Y181870D01*
X59961Y181791D01*
X59972Y181713D01*
X59976Y181634D01*
X59980Y181555D01*
X59976Y181476D01*
X59972Y181398D01*
X59961Y181319D01*
X59949Y181240D01*
X59929Y181161D01*
X59905Y181087D01*
X59878Y181012D01*
X59850Y180937D01*
X59815Y180866D01*
X59776Y180799D01*
X59736Y180728D01*
X59689Y180665D01*
X59642Y180602D01*
X59591Y180539D01*
X59535Y180484D01*
X59480Y180429D01*
X59417Y180378D01*
X59354Y180331D01*
X59291Y180283D01*
X59220Y180244D01*
X59153Y180205D01*
X59083Y180169D01*
X59008Y180142D01*
X58933Y180114D01*
X58858Y180091D01*
X58780Y180071D01*
X58701Y180059D01*
X58622Y180047D01*
X58543Y180043D01*
X58465Y180039D01*
X57677D01*
X57598Y180043D01*
D02*
G37*
G36*
X248529Y206581D02*
X248608Y206577D01*
X248687Y206565D01*
X248765Y206553D01*
X248844Y206534D01*
X248919Y206510D01*
X248994Y206482D01*
X249069Y206455D01*
X249139Y206419D01*
X249210Y206380D01*
X249277Y206341D01*
X249340Y206293D01*
X249403Y206246D01*
X249466Y206195D01*
X249521Y206140D01*
X249576Y206085D01*
X249628Y206022D01*
X249675Y205959D01*
X249722Y205896D01*
X249762Y205825D01*
X249801Y205758D01*
X249836Y205687D01*
X249864Y205612D01*
X249891Y205537D01*
X249915Y205463D01*
X249935Y205384D01*
X249947Y205305D01*
X249958Y205226D01*
X249962Y205148D01*
X249966Y205069D01*
X249962Y204990D01*
X249958Y204911D01*
X249947Y204833D01*
X249935Y204754D01*
X249915Y204675D01*
X249891Y204601D01*
X249864Y204526D01*
X249836Y204451D01*
X249801Y204380D01*
X249762Y204313D01*
X249722Y204242D01*
X249675Y204179D01*
X249628Y204116D01*
X249576Y204053D01*
X249521Y203998D01*
X249466Y203943D01*
X249403Y203892D01*
X249340Y203844D01*
X249277Y203797D01*
X249210Y203758D01*
X249139Y203719D01*
X249069Y203683D01*
X248994Y203656D01*
X248919Y203628D01*
X248844Y203604D01*
X248765Y203585D01*
X248687Y203573D01*
X248608Y203561D01*
X248529Y203557D01*
X248450Y203553D01*
X247663D01*
X247584Y203557D01*
X247506Y203561D01*
X247427Y203573D01*
X247348Y203585D01*
X247269Y203604D01*
X247195Y203628D01*
X247120Y203656D01*
X247045Y203683D01*
X246974Y203719D01*
X246903Y203758D01*
X246836Y203797D01*
X246773Y203844D01*
X246710Y203892D01*
X246647Y203943D01*
X246592Y203998D01*
X246537Y204053D01*
X246486Y204116D01*
X246439Y204179D01*
X246392Y204242D01*
X246352Y204309D01*
X246313Y204380D01*
X246277Y204451D01*
X246250Y204526D01*
X246222Y204601D01*
X246199Y204675D01*
X246179Y204754D01*
X246167Y204833D01*
X246155Y204911D01*
X246151Y204990D01*
X246147Y205069D01*
X246151Y205148D01*
X246155Y205226D01*
X246167Y205305D01*
X246179Y205384D01*
X246199Y205463D01*
X246222Y205537D01*
X246250Y205612D01*
X246277Y205687D01*
X246313Y205758D01*
X246352Y205825D01*
X246392Y205896D01*
X246439Y205959D01*
X246486Y206022D01*
X246537Y206085D01*
X246592Y206140D01*
X246647Y206195D01*
X246710Y206246D01*
X246773Y206293D01*
X246836Y206341D01*
X246907Y206380D01*
X246974Y206419D01*
X247045Y206455D01*
X247120Y206482D01*
X247195Y206510D01*
X247269Y206534D01*
X247348Y206553D01*
X247427Y206565D01*
X247506Y206577D01*
X247584Y206581D01*
X247663Y206585D01*
X248450D01*
X248529Y206581D01*
D02*
G37*
D52*
X151575Y149764D02*
D03*
Y143543D02*
D03*
X304038Y126787D02*
D03*
Y120567D02*
D03*
X296578Y126787D02*
D03*
Y120567D02*
D03*
X303829Y89018D02*
D03*
Y82798D02*
D03*
X296578Y89018D02*
D03*
Y82798D02*
D03*
D53*
X88425Y167323D02*
D03*
X94646D02*
D03*
X88425Y161417D02*
D03*
X94646D02*
D03*
X258701Y67167D02*
D03*
X264921D02*
D03*
X258701Y51444D02*
D03*
X264921D02*
D03*
D57*
X492323Y216535D02*
D03*
X499803D02*
D03*
X467321Y80760D02*
D03*
X459841D02*
D03*
X418563Y70644D02*
D03*
X411083D02*
D03*
X418563Y77618D02*
D03*
X411083D02*
D03*
X418563Y84941D02*
D03*
X411083D02*
D03*
X418563Y92100D02*
D03*
X411083D02*
D03*
X261280Y151277D02*
D03*
X253799D02*
D03*
X261280Y113189D02*
D03*
X253799D02*
D03*
D60*
X142717Y123819D02*
D03*
Y116339D02*
D03*
X113189Y124803D02*
D03*
Y117323D02*
D03*
X136811Y142913D02*
D03*
Y150394D02*
D03*
X144685D02*
D03*
Y142913D02*
D03*
X113189Y93701D02*
D03*
Y101181D02*
D03*
X121063Y150295D02*
D03*
Y142815D02*
D03*
X128937Y150295D02*
D03*
Y142815D02*
D03*
X142717Y93701D02*
D03*
Y101181D02*
D03*
X136811Y66043D02*
D03*
Y73524D02*
D03*
X128937Y66043D02*
D03*
Y73524D02*
D03*
X216535Y180905D02*
D03*
Y173425D02*
D03*
X296578Y141124D02*
D03*
Y148604D02*
D03*
Y105834D02*
D03*
Y113315D02*
D03*
X113189Y173031D02*
D03*
Y165551D02*
D03*
X121063Y173031D02*
D03*
Y165551D02*
D03*
X170276Y173031D02*
D03*
Y165551D02*
D03*
D62*
X416339Y328740D02*
D03*
X116142Y15748D02*
D03*
X15748Y261811D02*
D03*
D74*
X210630Y305197D02*
D03*
X164370Y303228D02*
D03*
X31496Y186417D02*
D03*
X43307D02*
D03*
X185039D02*
D03*
X196850D02*
D03*
X31496Y123425D02*
D03*
X43307D02*
D03*
X185039D02*
D03*
X196850D02*
D03*
D85*
X387795Y153543D02*
D03*
X326772Y196850D02*
D03*
X261811Y175197D02*
D03*
D89*
X63386Y190020D02*
D03*
X82284D02*
D03*
X63386Y173091D02*
D03*
X82284D02*
D03*
X223844Y213533D02*
D03*
X242742D02*
D03*
X223844Y196604D02*
D03*
X242742D02*
D03*
D90*
X87598Y181555D02*
D03*
X218529Y205069D02*
D03*
D91*
X210630Y295197D02*
D03*
X257953Y229331D02*
D03*
X182165Y211614D02*
D03*
X164370Y293228D02*
D03*
X94488Y228346D02*
D03*
Y208661D02*
D03*
X149606Y250000D02*
D03*
Y269685D02*
D03*
X31496Y136417D02*
D03*
Y146417D02*
D03*
Y156417D02*
D03*
Y166417D02*
D03*
Y176417D02*
D03*
X43307Y136417D02*
D03*
Y146417D02*
D03*
Y156417D02*
D03*
Y166417D02*
D03*
Y176417D02*
D03*
X185039Y136417D02*
D03*
Y146417D02*
D03*
Y156417D02*
D03*
Y166417D02*
D03*
Y176417D02*
D03*
X196850Y136417D02*
D03*
Y146417D02*
D03*
Y156417D02*
D03*
Y166417D02*
D03*
Y176417D02*
D03*
X31496Y73425D02*
D03*
Y83425D02*
D03*
Y93425D02*
D03*
Y103425D02*
D03*
Y113425D02*
D03*
X43307Y73425D02*
D03*
Y83425D02*
D03*
Y93425D02*
D03*
Y103425D02*
D03*
Y113425D02*
D03*
X185039Y73425D02*
D03*
Y83425D02*
D03*
Y93425D02*
D03*
Y103425D02*
D03*
Y113425D02*
D03*
X196850Y73425D02*
D03*
Y83425D02*
D03*
Y93425D02*
D03*
Y103425D02*
D03*
Y113425D02*
D03*
D92*
X247953Y229331D02*
D03*
X172165Y211614D02*
D03*
D93*
X227362Y157992D02*
D03*
D94*
X237362D02*
D03*
X227362Y147992D02*
D03*
X237362D02*
D03*
X227362Y137992D02*
D03*
X237362D02*
D03*
X227362Y127992D02*
D03*
X237362D02*
D03*
X227362Y117992D02*
D03*
X237362D02*
D03*
X227362Y107992D02*
D03*
X237362D02*
D03*
X227362Y97992D02*
D03*
X237362D02*
D03*
X227362Y87992D02*
D03*
X237362D02*
D03*
X227362Y77992D02*
D03*
X237362D02*
D03*
X227362Y67992D02*
D03*
X237362D02*
D03*
D95*
X53740Y314961D02*
D03*
X116732D02*
D03*
X53740Y326772D02*
D03*
X47835Y29528D02*
D03*
X116732Y326772D02*
D03*
D96*
X63740Y314961D02*
D03*
X73740D02*
D03*
X83740D02*
D03*
X93740D02*
D03*
X103740D02*
D03*
X126732D02*
D03*
X136732D02*
D03*
X146732D02*
D03*
X156732D02*
D03*
X166732D02*
D03*
X63740Y326772D02*
D03*
X73740D02*
D03*
X83740D02*
D03*
X93740D02*
D03*
X103740D02*
D03*
X57835Y29528D02*
D03*
X67835D02*
D03*
X77835D02*
D03*
X87835D02*
D03*
X97835D02*
D03*
X523622Y133110D02*
D03*
Y123110D02*
D03*
Y113110D02*
D03*
Y103110D02*
D03*
Y93110D02*
D03*
X511811Y239409D02*
D03*
Y229410D02*
D03*
Y219409D02*
D03*
Y209409D02*
D03*
Y199409D02*
D03*
X523622Y239409D02*
D03*
Y229410D02*
D03*
Y219409D02*
D03*
Y209409D02*
D03*
Y199409D02*
D03*
X126732Y326772D02*
D03*
X136732D02*
D03*
X146732D02*
D03*
X156732D02*
D03*
X166732D02*
D03*
X511811Y133110D02*
D03*
Y123110D02*
D03*
Y113110D02*
D03*
Y103110D02*
D03*
Y93110D02*
D03*
D97*
X523622Y143110D02*
D03*
X511811Y249410D02*
D03*
X523622D02*
D03*
X511811Y143110D02*
D03*
D98*
X159449Y79724D02*
D03*
X157307Y50631D02*
D03*
X136811Y77756D02*
D03*
X95104Y123848D02*
D03*
X106299Y102362D02*
D03*
X107503Y118915D02*
D03*
X105315Y163009D02*
D03*
Y167159D02*
D03*
X148622Y118110D02*
D03*
X149606Y102362D02*
D03*
X156496Y149606D02*
D03*
X109327Y155146D02*
D03*
X136918Y133957D02*
D03*
X128921Y136713D02*
D03*
X134953Y127965D02*
D03*
X141732Y136811D02*
D03*
X124016Y135728D02*
D03*
X131890Y103248D02*
D03*
Y109153D02*
D03*
X124016D02*
D03*
Y103248D02*
D03*
X128937Y79626D02*
D03*
D99*
X75380Y164302D02*
D03*
X72646Y166957D02*
D03*
X74803Y191929D02*
D03*
X72147Y194585D02*
D03*
D131*
X500394Y244291D02*
D03*
Y235236D02*
D03*
Y226181D02*
D03*
X470866Y90354D02*
D03*
Y99410D02*
D03*
Y108465D02*
D03*
X227953Y185827D02*
D03*
Y176772D02*
D03*
Y167717D02*
D03*
D132*
X475984Y235236D02*
D03*
X446457Y99410D02*
D03*
X252362Y176772D02*
D03*
D133*
X261221Y143405D02*
D03*
Y140847D02*
D03*
Y138287D02*
D03*
Y135728D02*
D03*
Y133169D02*
D03*
Y130610D02*
D03*
Y128051D02*
D03*
Y125492D02*
D03*
Y122933D02*
D03*
Y120374D02*
D03*
X284055D02*
D03*
Y122933D02*
D03*
Y125492D02*
D03*
Y128051D02*
D03*
Y130610D02*
D03*
Y133169D02*
D03*
Y135728D02*
D03*
Y138287D02*
D03*
Y140847D02*
D03*
Y143405D02*
D03*
X261221Y106004D02*
D03*
Y103445D02*
D03*
Y100886D02*
D03*
Y98327D02*
D03*
Y95768D02*
D03*
Y93209D02*
D03*
Y90650D02*
D03*
Y88091D02*
D03*
Y85532D02*
D03*
Y82973D02*
D03*
X284055D02*
D03*
Y85532D02*
D03*
Y88091D02*
D03*
Y90650D02*
D03*
Y93209D02*
D03*
Y95768D02*
D03*
Y98327D02*
D03*
Y100886D02*
D03*
Y103445D02*
D03*
Y106004D02*
D03*
D134*
X276772Y50046D02*
D03*
Y57526D02*
D03*
X285433Y53786D02*
D03*
X276772Y67126D02*
D03*
Y74606D02*
D03*
X285433Y70866D02*
D03*
D135*
X132677Y191339D02*
D03*
X141732D02*
D03*
X150787D02*
D03*
D136*
X141732Y166929D02*
D03*
M02*
